<svg width="26" height="26" viewBox="0 0 26 26" fill="none" xmlns="http://www.w3.org/2000/svg">
<rect width="26" height="26" rx="13" fill="#1C1C1C"/>
<g clip-path="url(#clip0_12_1249)">
<path d="M11.4031 6.46758C10.3969 6.59883 9.32773 7.05273 8.55664 7.67617C8.34336 7.84844 7.89766 8.28867 7.72266 8.50469C7.20586 9.13086 6.80664 9.91836 6.6043 10.7113C6.46484 11.2555 6.4375 11.5426 6.4375 12.4641C6.4375 12.9234 6.44297 13.3008 6.45117 13.3008C6.45664 13.3008 6.65352 13.2324 6.88867 13.1477L7.3125 12.9918V12.6336C7.31523 11.4852 7.45195 10.7797 7.81562 10.0332C7.95508 9.75156 8.20664 9.34414 8.35977 9.1582L8.42812 9.07617L8.68789 9.32773C9.07344 9.70234 9.35781 9.81992 9.80078 9.79258C10.077 9.77617 10.2191 9.72695 10.5582 9.52188C10.8125 9.36875 11.1406 9.23477 11.4687 9.15C11.6246 9.10898 11.8215 9.10352 13.0137 9.10352C14.3344 9.10352 14.3891 9.10625 14.5914 9.16367C14.9113 9.25391 15.2012 9.37695 15.4746 9.54102C15.7918 9.72969 15.9148 9.77617 16.1855 9.79258C16.6312 9.82266 16.9266 9.69961 17.3148 9.325C17.4652 9.18008 17.5773 9.08984 17.591 9.10625C17.6047 9.11992 17.684 9.22656 17.766 9.34414C18.2145 9.97031 18.5043 10.6867 18.6191 11.4578C18.6465 11.6383 18.6602 11.9391 18.6602 12.3574V12.9863L19.0785 13.1367C19.3055 13.2188 19.5105 13.2898 19.527 13.2953C19.5816 13.309 19.5762 11.8188 19.5215 11.3949C19.1906 8.81367 17.1508 6.7875 14.5586 6.46758C14.2797 6.43203 11.6766 6.43477 11.4031 6.46758Z" fill="white"/>
<path d="M8.5293 13.4648C8.38438 13.4949 6.68906 14.1129 6.60703 14.1648C6.50313 14.2332 6.4375 14.3672 6.4375 14.5094C6.4375 14.6133 6.59883 15.0863 7.18672 16.6996C7.59688 17.8316 7.96602 18.8215 8.00703 18.9008C8.11367 19.1086 8.33789 19.3219 8.58672 19.4449C8.8 19.5488 8.8 19.5488 9.1418 19.5488H9.48633L9.99219 19.3629C10.5445 19.1578 10.6813 19.0895 10.8563 18.9281C11.1734 18.6355 11.3266 18.157 11.2391 17.7414C11.198 17.5418 10.077 14.4328 9.94844 14.1594C9.71602 13.6617 9.08438 13.3555 8.5293 13.4648Z" fill="white"/>
<path d="M16.9184 13.4758C16.5957 13.5578 16.2895 13.7711 16.1199 14.0336C16.0734 14.1074 15.7699 14.8949 15.4008 15.8984L14.7664 17.6348L14.7637 17.9766C14.7637 18.3156 14.7637 18.3211 14.8676 18.5344C14.9879 18.7887 15.2094 19.0184 15.4391 19.1305C15.5238 19.1715 15.8 19.2836 16.0543 19.3766L16.5137 19.5461L16.8555 19.5488C17.1945 19.5488 17.2 19.5488 17.4105 19.4477C17.6895 19.3137 17.8918 19.1141 18.0176 18.8461C18.0668 18.7367 18.4359 17.7469 18.8352 16.6477C19.6172 14.5012 19.6227 14.4793 19.5078 14.2934C19.4805 14.2441 19.4258 14.1867 19.393 14.1648C19.3574 14.1402 18.9172 13.9734 18.4168 13.793C17.591 13.4922 17.4871 13.4594 17.2848 13.4512C17.1508 13.443 17.0031 13.4539 16.9184 13.4758Z" fill="white"/>
</g>
<defs>
<clipPath id="clip0_12_1249">
<rect width="14" height="14" fill="white" transform="translate(6 6)"/>
</clipPath>
</defs>
</svg>
